<svg width="1200" height="630" viewBox="0 0 1200 630" fill="none" xmlns="http://www.w3.org/2000/svg">
<rect width="1200" height="630" fill="white"/>
<path d="M282.605 468H276.98L287.222 438.909H293.727L303.983 468H298.358L290.588 444.875H290.361L282.605 468ZM282.79 456.594H298.131V460.827H282.79V456.594ZM315.02 468.384C313.306 468.384 311.772 467.943 310.418 467.062C309.063 466.182 307.993 464.903 307.207 463.227C306.421 461.551 306.028 459.515 306.028 457.119C306.028 454.695 306.426 452.65 307.222 450.983C308.027 449.307 309.111 448.043 310.474 447.19C311.838 446.329 313.358 445.898 315.034 445.898C316.313 445.898 317.364 446.116 318.188 446.551C319.011 446.977 319.665 447.493 320.148 448.099C320.631 448.696 321.005 449.259 321.27 449.79H321.483V438.909H326.639V468H321.582V464.562H321.27C321.005 465.093 320.621 465.656 320.119 466.253C319.617 466.84 318.955 467.342 318.131 467.759C317.307 468.175 316.27 468.384 315.02 468.384ZM316.455 464.165C317.544 464.165 318.472 463.871 319.239 463.284C320.006 462.687 320.588 461.859 320.986 460.798C321.384 459.738 321.582 458.502 321.582 457.091C321.582 455.68 321.384 454.454 320.986 453.412C320.598 452.37 320.02 451.561 319.253 450.983C318.495 450.405 317.563 450.116 316.455 450.116C315.309 450.116 314.352 450.415 313.585 451.011C312.818 451.608 312.241 452.432 311.852 453.483C311.464 454.534 311.27 455.737 311.27 457.091C311.27 458.455 311.464 459.671 311.852 460.741C312.25 461.802 312.832 462.64 313.599 463.256C314.376 463.862 315.328 464.165 316.455 464.165ZM340.215 468.384C338.501 468.384 336.967 467.943 335.613 467.062C334.259 466.182 333.189 464.903 332.403 463.227C331.617 461.551 331.224 459.515 331.224 457.119C331.224 454.695 331.621 452.65 332.417 450.983C333.222 449.307 334.306 448.043 335.67 447.19C337.033 446.329 338.553 445.898 340.229 445.898C341.508 445.898 342.559 446.116 343.383 446.551C344.207 446.977 344.86 447.493 345.343 448.099C345.826 448.696 346.2 449.259 346.465 449.79H346.678V438.909H351.835V468H346.778V464.562H346.465C346.2 465.093 345.817 465.656 345.315 466.253C344.813 466.84 344.15 467.342 343.326 467.759C342.502 468.175 341.465 468.384 340.215 468.384ZM341.65 464.165C342.739 464.165 343.667 463.871 344.434 463.284C345.201 462.687 345.783 461.859 346.181 460.798C346.579 459.738 346.778 458.502 346.778 457.091C346.778 455.68 346.579 454.454 346.181 453.412C345.793 452.37 345.215 451.561 344.448 450.983C343.691 450.405 342.758 450.116 341.65 450.116C340.504 450.116 339.548 450.415 338.781 451.011C338.013 451.608 337.436 452.432 337.048 453.483C336.659 454.534 336.465 455.737 336.465 457.091C336.465 458.455 336.659 459.671 337.048 460.741C337.445 461.802 338.028 462.64 338.795 463.256C339.571 463.862 340.523 464.165 341.65 464.165ZM367.236 468V446.182H372.151V449.889H372.406C372.861 448.639 373.614 447.664 374.665 446.963C375.716 446.253 376.971 445.898 378.429 445.898C379.906 445.898 381.152 446.258 382.165 446.977C383.188 447.687 383.907 448.658 384.324 449.889H384.551C385.034 448.677 385.848 447.711 386.994 446.991C388.15 446.262 389.518 445.898 391.099 445.898C393.107 445.898 394.745 446.532 396.014 447.801C397.283 449.07 397.918 450.921 397.918 453.355V468H392.761V454.151C392.761 452.796 392.402 451.807 391.682 451.182C390.962 450.547 390.081 450.23 389.04 450.23C387.799 450.23 386.829 450.618 386.128 451.395C385.437 452.162 385.091 453.161 385.091 454.392V468H380.048V453.938C380.048 452.811 379.707 451.911 379.026 451.239C378.353 450.566 377.473 450.23 376.384 450.23C375.645 450.23 374.973 450.42 374.366 450.798C373.76 451.168 373.277 451.693 372.918 452.375C372.558 453.047 372.378 453.833 372.378 454.733V468H367.236ZM412.651 468.426C410.521 468.426 408.674 467.957 407.112 467.02C405.549 466.082 404.337 464.771 403.475 463.085C402.623 461.4 402.197 459.43 402.197 457.176C402.197 454.922 402.623 452.948 403.475 451.253C404.337 449.558 405.549 448.241 407.112 447.304C408.674 446.366 410.521 445.898 412.651 445.898C414.782 445.898 416.629 446.366 418.191 447.304C419.754 448.241 420.961 449.558 421.813 451.253C422.675 452.948 423.106 454.922 423.106 457.176C423.106 459.43 422.675 461.4 421.813 463.085C420.961 464.771 419.754 466.082 418.191 467.02C416.629 467.957 414.782 468.426 412.651 468.426ZM412.68 464.307C413.835 464.307 414.801 463.99 415.577 463.355C416.354 462.711 416.932 461.849 417.31 460.77C417.699 459.69 417.893 458.488 417.893 457.162C417.893 455.827 417.699 454.619 417.31 453.54C416.932 452.451 416.354 451.584 415.577 450.94C414.801 450.296 413.835 449.974 412.68 449.974C411.496 449.974 410.511 450.296 409.725 450.94C408.949 451.584 408.366 452.451 407.978 453.54C407.599 454.619 407.41 455.827 407.41 457.162C407.41 458.488 407.599 459.69 407.978 460.77C408.366 461.849 408.949 462.711 409.725 463.355C410.511 463.99 411.496 464.307 412.68 464.307ZM427.47 468V446.182H432.456V449.818H432.683C433.081 448.559 433.763 447.588 434.729 446.906C435.704 446.215 436.817 445.869 438.067 445.869C438.351 445.869 438.668 445.884 439.018 445.912C439.378 445.931 439.677 445.964 439.913 446.011V450.741C439.696 450.666 439.35 450.599 438.876 450.543C438.412 450.476 437.963 450.443 437.527 450.443C436.589 450.443 435.747 450.647 434.999 451.054C434.26 451.452 433.678 452.006 433.251 452.716C432.825 453.426 432.612 454.245 432.612 455.173V468H427.47ZM452.09 468.426C449.903 468.426 448.013 467.972 446.423 467.062C444.841 466.144 443.624 464.847 442.772 463.17C441.92 461.485 441.494 459.501 441.494 457.219C441.494 454.974 441.92 453.005 442.772 451.31C443.634 449.605 444.836 448.279 446.38 447.332C447.924 446.376 449.737 445.898 451.82 445.898C453.165 445.898 454.434 446.116 455.627 446.551C456.83 446.977 457.89 447.64 458.809 448.54C459.737 449.439 460.466 450.585 460.996 451.977C461.527 453.36 461.792 455.008 461.792 456.92V458.497H443.908V455.031H456.863C456.853 454.046 456.64 453.17 456.224 452.403C455.807 451.627 455.225 451.016 454.477 450.571C453.738 450.126 452.876 449.903 451.891 449.903C450.84 449.903 449.917 450.159 449.121 450.67C448.326 451.172 447.706 451.835 447.261 452.659C446.825 453.473 446.603 454.368 446.593 455.344V458.369C446.593 459.638 446.825 460.727 447.289 461.636C447.753 462.536 448.402 463.227 449.235 463.71C450.068 464.184 451.044 464.42 452.161 464.42C452.909 464.42 453.586 464.316 454.192 464.108C454.799 463.89 455.324 463.573 455.769 463.156C456.214 462.74 456.55 462.223 456.778 461.608L461.579 462.148C461.276 463.417 460.698 464.525 459.846 465.472C459.003 466.409 457.924 467.138 456.607 467.659C455.291 468.17 453.785 468.426 452.09 468.426ZM480.567 468L474.402 446.182H479.643L483.479 461.523H483.678L487.598 446.182H492.783L496.703 461.438H496.916L500.695 446.182H505.95L499.771 468H494.416L490.325 453.256H490.027L485.936 468H480.567ZM515.819 468.44C514.436 468.44 513.191 468.194 512.083 467.702C510.985 467.2 510.113 466.461 509.469 465.486C508.835 464.51 508.518 463.308 508.518 461.878C508.518 460.647 508.745 459.629 509.2 458.824C509.654 458.019 510.274 457.375 511.06 456.892C511.846 456.409 512.732 456.045 513.717 455.798C514.711 455.543 515.738 455.358 516.799 455.244C518.077 455.112 519.114 454.993 519.91 454.889C520.705 454.776 521.283 454.605 521.643 454.378C522.012 454.141 522.197 453.777 522.197 453.284V453.199C522.197 452.129 521.879 451.3 521.245 450.713C520.611 450.126 519.697 449.832 518.504 449.832C517.244 449.832 516.245 450.107 515.506 450.656C514.777 451.205 514.285 451.854 514.029 452.602L509.228 451.92C509.607 450.595 510.232 449.487 511.103 448.597C511.974 447.697 513.04 447.025 514.299 446.58C515.558 446.125 516.951 445.898 518.475 445.898C519.526 445.898 520.573 446.021 521.614 446.267C522.656 446.513 523.608 446.92 524.469 447.489C525.331 448.047 526.022 448.81 526.543 449.776C527.074 450.741 527.339 451.949 527.339 453.398V468H522.396V465.003H522.225C521.913 465.609 521.472 466.177 520.904 466.707C520.345 467.228 519.64 467.65 518.788 467.972C517.945 468.284 516.955 468.44 515.819 468.44ZM517.154 464.662C518.186 464.662 519.081 464.458 519.839 464.051C520.596 463.634 521.179 463.085 521.586 462.403C522.003 461.722 522.211 460.978 522.211 460.173V457.602C522.05 457.735 521.775 457.858 521.387 457.972C521.008 458.085 520.582 458.185 520.109 458.27C519.635 458.355 519.166 458.431 518.702 458.497C518.238 458.563 517.836 458.62 517.495 458.668C516.728 458.772 516.041 458.942 515.435 459.179C514.829 459.416 514.351 459.747 514.001 460.173C513.65 460.59 513.475 461.13 513.475 461.793C513.475 462.74 513.821 463.455 514.512 463.938C515.203 464.42 516.084 464.662 517.154 464.662ZM534.924 476.182C534.223 476.182 533.575 476.125 532.978 476.011C532.391 475.907 531.922 475.784 531.572 475.642L532.765 471.636C533.513 471.854 534.181 471.958 534.768 471.949C535.355 471.939 535.871 471.755 536.316 471.395C536.771 471.045 537.154 470.457 537.467 469.634L537.907 468.455L529.995 446.182H535.45L540.478 462.659H540.705L545.748 446.182H551.217L542.481 470.642C542.074 471.797 541.534 472.787 540.862 473.611C540.189 474.444 539.365 475.079 538.39 475.514C537.424 475.959 536.269 476.182 534.924 476.182ZM572.019 451.949L567.332 452.46C567.199 451.987 566.967 451.542 566.636 451.125C566.314 450.708 565.878 450.372 565.329 450.116C564.78 449.861 564.107 449.733 563.312 449.733C562.242 449.733 561.342 449.965 560.613 450.429C559.893 450.893 559.538 451.494 559.548 452.233C559.538 452.867 559.77 453.384 560.244 453.781C560.727 454.179 561.522 454.506 562.63 454.761L566.352 455.557C568.416 456.002 569.95 456.707 570.954 457.673C571.967 458.639 572.478 459.903 572.488 461.466C572.478 462.839 572.076 464.051 571.281 465.102C570.495 466.144 569.401 466.958 567.999 467.545C566.598 468.133 564.988 468.426 563.17 468.426C560.499 468.426 558.35 467.867 556.721 466.75C555.092 465.623 554.121 464.056 553.809 462.048L558.823 461.565C559.05 462.55 559.533 463.294 560.272 463.795C561.011 464.297 561.972 464.548 563.156 464.548C564.377 464.548 565.357 464.297 566.096 463.795C566.844 463.294 567.218 462.673 567.218 461.935C567.218 461.31 566.977 460.794 566.494 460.386C566.02 459.979 565.281 459.667 564.278 459.449L560.556 458.668C558.463 458.232 556.915 457.498 555.911 456.466C554.907 455.424 554.41 454.108 554.42 452.517C554.41 451.172 554.775 450.008 555.513 449.023C556.262 448.028 557.299 447.261 558.624 446.722C559.96 446.172 561.498 445.898 563.241 445.898C565.798 445.898 567.81 446.442 569.278 447.531C570.755 448.62 571.669 450.093 572.019 451.949ZM597.701 446.182V450.159H584.803V446.182H597.701ZM588.028 468V444.122C588.028 442.654 588.331 441.433 588.937 440.457C589.552 439.482 590.376 438.753 591.408 438.27C592.441 437.787 593.586 437.545 594.846 437.545C595.736 437.545 596.527 437.616 597.218 437.759C597.909 437.901 598.421 438.028 598.752 438.142L597.729 442.119C597.512 442.053 597.237 441.987 596.906 441.92C596.574 441.845 596.205 441.807 595.798 441.807C594.841 441.807 594.164 442.039 593.766 442.503C593.378 442.957 593.184 443.611 593.184 444.463V468H588.028ZM610.425 468.426C608.294 468.426 606.447 467.957 604.885 467.02C603.322 466.082 602.11 464.771 601.249 463.085C600.396 461.4 599.97 459.43 599.97 457.176C599.97 454.922 600.396 452.948 601.249 451.253C602.11 449.558 603.322 448.241 604.885 447.304C606.447 446.366 608.294 445.898 610.425 445.898C612.555 445.898 614.402 446.366 615.964 447.304C617.527 448.241 618.734 449.558 619.587 451.253C620.448 452.948 620.879 454.922 620.879 457.176C620.879 459.43 620.448 461.4 619.587 463.085C618.734 464.771 617.527 466.082 615.964 467.02C614.402 467.957 612.555 468.426 610.425 468.426ZM610.453 464.307C611.608 464.307 612.574 463.99 613.351 463.355C614.127 462.711 614.705 461.849 615.084 460.77C615.472 459.69 615.666 458.488 615.666 457.162C615.666 455.827 615.472 454.619 615.084 453.54C614.705 452.451 614.127 451.584 613.351 450.94C612.574 450.296 611.608 449.974 610.453 449.974C609.269 449.974 608.285 450.296 607.499 450.94C606.722 451.584 606.14 452.451 605.751 453.54C605.373 454.619 605.183 455.827 605.183 457.162C605.183 458.488 605.373 459.69 605.751 460.77C606.14 461.849 606.722 462.711 607.499 463.355C608.285 463.99 609.269 464.307 610.453 464.307ZM625.244 468V446.182H630.229V449.818H630.457C630.854 448.559 631.536 447.588 632.502 446.906C633.478 446.215 634.59 445.869 635.84 445.869C636.124 445.869 636.442 445.884 636.792 445.912C637.152 445.931 637.45 445.964 637.687 446.011V450.741C637.469 450.666 637.123 450.599 636.65 450.543C636.186 450.476 635.736 450.443 635.3 450.443C634.363 450.443 633.52 450.647 632.772 451.054C632.033 451.452 631.451 452.006 631.025 452.716C630.599 453.426 630.386 454.245 630.386 455.173V468H625.244ZM664.931 458.824V446.182H670.073V468H665.087V464.122H664.86C664.368 465.344 663.558 466.343 662.431 467.119C661.314 467.896 659.936 468.284 658.298 468.284C656.868 468.284 655.603 467.967 654.505 467.332C653.416 466.688 652.564 465.756 651.948 464.534C651.333 463.303 651.025 461.816 651.025 460.074V446.182H656.167V459.278C656.167 460.661 656.546 461.759 657.303 462.574C658.061 463.388 659.055 463.795 660.286 463.795C661.044 463.795 661.778 463.611 662.488 463.241C663.198 462.872 663.781 462.323 664.235 461.594C664.699 460.855 664.931 459.932 664.931 458.824ZM692.605 451.949L687.918 452.46C687.785 451.987 687.553 451.542 687.222 451.125C686.9 450.708 686.464 450.372 685.915 450.116C685.366 449.861 684.693 449.733 683.898 449.733C682.828 449.733 681.928 449.965 681.199 450.429C680.479 450.893 680.124 451.494 680.134 452.233C680.124 452.867 680.356 453.384 680.83 453.781C681.313 454.179 682.108 454.506 683.216 454.761L686.938 455.557C689.002 456.002 690.536 456.707 691.54 457.673C692.553 458.639 693.064 459.903 693.074 461.466C693.064 462.839 692.662 464.051 691.866 465.102C691.08 466.144 689.987 466.958 688.585 467.545C687.184 468.133 685.574 468.426 683.756 468.426C681.085 468.426 678.936 467.867 677.307 466.75C675.678 465.623 674.707 464.056 674.395 462.048L679.409 461.565C679.636 462.55 680.119 463.294 680.858 463.795C681.597 464.297 682.558 464.548 683.741 464.548C684.963 464.548 685.943 464.297 686.682 463.795C687.43 463.294 687.804 462.673 687.804 461.935C687.804 461.31 687.563 460.794 687.08 460.386C686.606 459.979 685.867 459.667 684.864 459.449L681.142 458.668C679.049 458.232 677.501 457.498 676.497 456.466C675.493 455.424 674.996 454.108 675.006 452.517C674.996 451.172 675.361 450.008 676.099 449.023C676.848 448.028 677.884 447.261 679.21 446.722C680.545 446.172 682.084 445.898 683.827 445.898C686.384 445.898 688.396 446.442 689.864 447.531C691.341 448.62 692.255 450.093 692.605 451.949ZM697.314 468V446.182H702.456V468H697.314ZM699.899 443.085C699.085 443.085 698.384 442.815 697.797 442.276C697.21 441.726 696.916 441.068 696.916 440.301C696.916 439.525 697.21 438.866 697.797 438.327C698.384 437.777 699.085 437.503 699.899 437.503C700.723 437.503 701.424 437.777 702.001 438.327C702.589 438.866 702.882 439.525 702.882 440.301C702.882 441.068 702.589 441.726 702.001 442.276C701.424 442.815 700.723 443.085 699.899 443.085ZM712.886 455.216V468H707.744V446.182H712.658V449.889H712.914C713.416 448.668 714.216 447.697 715.315 446.977C716.423 446.258 717.791 445.898 719.42 445.898C720.925 445.898 722.237 446.22 723.354 446.864C724.481 447.508 725.353 448.44 725.968 449.662C726.593 450.884 726.901 452.366 726.891 454.108V468H721.749V454.903C721.749 453.445 721.371 452.304 720.613 451.48C719.865 450.656 718.828 450.244 717.502 450.244C716.603 450.244 715.802 450.443 715.102 450.841C714.41 451.229 713.866 451.793 713.468 452.531C713.08 453.27 712.886 454.165 712.886 455.216ZM741.607 476.636C739.761 476.636 738.174 476.385 736.849 475.884C735.523 475.391 734.458 474.728 733.653 473.895C732.848 473.062 732.289 472.138 731.977 471.125L736.607 470.003C736.816 470.429 737.119 470.85 737.516 471.267C737.914 471.693 738.449 472.044 739.121 472.318C739.803 472.602 740.66 472.744 741.692 472.744C743.151 472.744 744.358 472.389 745.315 471.679C746.271 470.978 746.749 469.823 746.749 468.213V464.08H746.494C746.228 464.61 745.84 465.154 745.329 465.713C744.827 466.272 744.159 466.741 743.326 467.119C742.502 467.498 741.465 467.688 740.215 467.688C738.539 467.688 737.019 467.295 735.656 466.509C734.301 465.713 733.222 464.529 732.417 462.957C731.621 461.376 731.224 459.397 731.224 457.02C731.224 454.624 731.621 452.602 732.417 450.955C733.222 449.297 734.306 448.043 735.67 447.19C737.033 446.329 738.553 445.898 740.229 445.898C741.508 445.898 742.559 446.116 743.383 446.551C744.216 446.977 744.879 447.493 745.371 448.099C745.864 448.696 746.238 449.259 746.494 449.79H746.778V446.182H751.849V468.355C751.849 470.221 751.404 471.764 750.513 472.986C749.623 474.207 748.406 475.121 746.863 475.727C745.319 476.333 743.567 476.636 741.607 476.636ZM741.65 463.653C742.739 463.653 743.667 463.388 744.434 462.858C745.201 462.328 745.783 461.565 746.181 460.571C746.579 459.577 746.778 458.384 746.778 456.991C746.778 455.618 746.579 454.416 746.181 453.384C745.793 452.351 745.215 451.551 744.448 450.983C743.691 450.405 742.758 450.116 741.65 450.116C740.504 450.116 739.548 450.415 738.781 451.011C738.013 451.608 737.436 452.427 737.048 453.469C736.659 454.501 736.465 455.675 736.465 456.991C736.465 458.327 736.659 459.496 737.048 460.5C737.445 461.494 738.028 462.271 738.795 462.83C739.571 463.379 740.523 463.653 741.65 463.653ZM770.237 476.182C769.536 476.182 768.887 476.125 768.29 476.011C767.703 475.907 767.235 475.784 766.884 475.642L768.077 471.636C768.826 471.854 769.493 471.958 770.08 471.949C770.667 471.939 771.183 471.755 771.629 471.395C772.083 471.045 772.467 470.457 772.779 469.634L773.219 468.455L765.308 446.182H770.762L775.79 462.659H776.018L781.06 446.182H786.529L777.793 470.642C777.386 471.797 776.846 472.787 776.174 473.611C775.502 474.444 774.678 475.079 773.702 475.514C772.737 475.959 771.581 476.182 770.237 476.182ZM798.862 468.426C796.732 468.426 794.885 467.957 793.322 467.02C791.76 466.082 790.548 464.771 789.686 463.085C788.834 461.4 788.408 459.43 788.408 457.176C788.408 454.922 788.834 452.948 789.686 451.253C790.548 449.558 791.76 448.241 793.322 447.304C794.885 446.366 796.732 445.898 798.862 445.898C800.993 445.898 802.839 446.366 804.402 447.304C805.964 448.241 807.172 449.558 808.024 451.253C808.886 452.948 809.317 454.922 809.317 457.176C809.317 459.43 808.886 461.4 808.024 463.085C807.172 464.771 805.964 466.082 804.402 467.02C802.839 467.957 800.993 468.426 798.862 468.426ZM798.891 464.307C800.046 464.307 801.012 463.99 801.788 463.355C802.565 462.711 803.143 461.849 803.521 460.77C803.91 459.69 804.104 458.488 804.104 457.162C804.104 455.827 803.91 454.619 803.521 453.54C803.143 452.451 802.565 451.584 801.788 450.94C801.012 450.296 800.046 449.974 798.891 449.974C797.707 449.974 796.722 450.296 795.936 450.94C795.16 451.584 794.577 452.451 794.189 453.54C793.81 454.619 793.621 455.827 793.621 457.162C793.621 458.488 793.81 459.69 794.189 460.77C794.577 461.849 795.16 462.711 795.936 463.355C796.722 463.99 797.707 464.307 798.891 464.307ZM827.587 458.824V446.182H832.729V468H827.744V464.122H827.516C827.024 465.344 826.214 466.343 825.087 467.119C823.97 467.896 822.592 468.284 820.954 468.284C819.524 468.284 818.26 467.967 817.161 467.332C816.072 466.688 815.22 465.756 814.604 464.534C813.989 463.303 813.681 461.816 813.681 460.074V446.182H818.823V459.278C818.823 460.661 819.202 461.759 819.96 462.574C820.717 463.388 821.711 463.795 822.942 463.795C823.7 463.795 824.434 463.611 825.144 463.241C825.854 462.872 826.437 462.323 826.891 461.594C827.355 460.855 827.587 459.932 827.587 458.824ZM838.017 468V446.182H843.003V449.818H843.23C843.628 448.559 844.31 447.588 845.276 446.906C846.251 446.215 847.364 445.869 848.614 445.869C848.898 445.869 849.215 445.884 849.565 445.912C849.925 445.931 850.223 445.964 850.46 446.011V450.741C850.242 450.666 849.897 450.599 849.423 450.543C848.959 450.476 848.509 450.443 848.074 450.443C847.136 450.443 846.294 450.647 845.545 451.054C844.807 451.452 844.224 452.006 843.798 452.716C843.372 453.426 843.159 454.245 843.159 455.173V468H838.017ZM873.315 468.426C871.137 468.426 869.267 467.948 867.705 466.991C866.152 466.035 864.954 464.714 864.111 463.028C863.277 461.333 862.861 459.383 862.861 457.176C862.861 454.96 863.287 453.005 864.139 451.31C864.991 449.605 866.194 448.279 867.747 447.332C869.31 446.376 871.156 445.898 873.287 445.898C875.058 445.898 876.625 446.224 877.989 446.878C879.362 447.522 880.455 448.436 881.27 449.619C882.084 450.794 882.548 452.167 882.662 453.739H877.747C877.548 452.687 877.075 451.812 876.327 451.111C875.588 450.401 874.598 450.045 873.358 450.045C872.307 450.045 871.384 450.33 870.588 450.898C869.793 451.456 869.172 452.261 868.727 453.312C868.292 454.364 868.074 455.623 868.074 457.091C868.074 458.578 868.292 459.856 868.727 460.926C869.163 461.987 869.774 462.806 870.56 463.384C871.355 463.952 872.288 464.236 873.358 464.236C874.116 464.236 874.793 464.094 875.389 463.81C875.995 463.516 876.502 463.095 876.909 462.545C877.316 461.996 877.596 461.329 877.747 460.543H882.662C882.539 462.086 882.084 463.455 881.298 464.648C880.512 465.831 879.442 466.759 878.088 467.432C876.734 468.095 875.143 468.426 873.315 468.426ZM886.884 468V446.182H891.87V449.818H892.097C892.495 448.559 893.177 447.588 894.143 446.906C895.118 446.215 896.231 445.869 897.481 445.869C897.765 445.869 898.082 445.884 898.433 445.912C898.792 445.931 899.091 445.964 899.327 446.011V450.741C899.11 450.666 898.764 450.599 898.29 450.543C897.826 450.476 897.377 450.443 896.941 450.443C896.004 450.443 895.161 450.647 894.413 451.054C893.674 451.452 893.092 452.006 892.665 452.716C892.239 453.426 892.026 454.245 892.026 455.173V468H886.884ZM906.604 476.182C905.903 476.182 905.254 476.125 904.658 476.011C904.071 475.907 903.602 475.784 903.251 475.642L904.445 471.636C905.193 471.854 905.86 471.958 906.447 471.949C907.035 471.939 907.551 471.755 907.996 471.395C908.45 471.045 908.834 470.457 909.146 469.634L909.587 468.455L901.675 446.182H907.129L912.158 462.659H912.385L917.428 446.182H922.896L914.161 470.642C913.753 471.797 913.214 472.787 912.541 473.611C911.869 474.444 911.045 475.079 910.07 475.514C909.104 475.959 907.948 476.182 906.604 476.182ZM926.455 476.182V446.182H931.511V449.79H931.81C932.075 449.259 932.449 448.696 932.932 448.099C933.415 447.493 934.068 446.977 934.892 446.551C935.716 446.116 936.767 445.898 938.045 445.898C939.731 445.898 941.251 446.329 942.605 447.19C943.969 448.043 945.048 449.307 945.844 450.983C946.649 452.65 947.051 454.695 947.051 457.119C947.051 459.515 946.658 461.551 945.872 463.227C945.086 464.903 944.016 466.182 942.662 467.062C941.308 467.943 939.774 468.384 938.06 468.384C936.81 468.384 935.773 468.175 934.949 467.759C934.125 467.342 933.462 466.84 932.96 466.253C932.468 465.656 932.084 465.093 931.81 464.562H931.597V476.182H926.455ZM931.497 457.091C931.497 458.502 931.696 459.738 932.094 460.798C932.501 461.859 933.083 462.687 933.841 463.284C934.608 463.871 935.536 464.165 936.625 464.165C937.761 464.165 938.713 463.862 939.48 463.256C940.247 462.64 940.825 461.802 941.213 460.741C941.611 459.671 941.81 458.455 941.81 457.091C941.81 455.737 941.616 454.534 941.227 453.483C940.839 452.432 940.261 451.608 939.494 451.011C938.727 450.415 937.771 450.116 936.625 450.116C935.527 450.116 934.594 450.405 933.827 450.983C933.06 451.561 932.477 452.37 932.08 453.412C931.691 454.454 931.497 455.68 931.497 457.091ZM962.349 446.182V450.159H949.807V446.182H962.349ZM952.903 440.955H958.045V461.438C958.045 462.129 958.15 462.659 958.358 463.028C958.576 463.388 958.86 463.634 959.21 463.767C959.561 463.9 959.949 463.966 960.375 463.966C960.697 463.966 960.991 463.942 961.256 463.895C961.53 463.848 961.739 463.805 961.881 463.767L962.747 467.787C962.473 467.882 962.08 467.986 961.568 468.099C961.066 468.213 960.451 468.279 959.722 468.298C958.434 468.336 957.274 468.142 956.241 467.716C955.209 467.28 954.39 466.608 953.784 465.699C953.188 464.79 952.894 463.653 952.903 462.29V440.955ZM975.933 468.426C973.802 468.426 971.955 467.957 970.393 467.02C968.83 466.082 967.618 464.771 966.756 463.085C965.904 461.4 965.478 459.43 965.478 457.176C965.478 454.922 965.904 452.948 966.756 451.253C967.618 449.558 968.83 448.241 970.393 447.304C971.955 446.366 973.802 445.898 975.933 445.898C978.063 445.898 979.91 446.366 981.472 447.304C983.035 448.241 984.242 449.558 985.094 451.253C985.956 452.948 986.387 454.922 986.387 457.176C986.387 459.43 985.956 461.4 985.094 463.085C984.242 464.771 983.035 466.082 981.472 467.02C979.91 467.957 978.063 468.426 975.933 468.426ZM975.961 464.307C977.116 464.307 978.082 463.99 978.859 463.355C979.635 462.711 980.213 461.849 980.592 460.77C980.98 459.69 981.174 458.488 981.174 457.162C981.174 455.827 980.98 454.619 980.592 453.54C980.213 452.451 979.635 451.584 978.859 450.94C978.082 450.296 977.116 449.974 975.961 449.974C974.777 449.974 973.792 450.296 973.006 450.94C972.23 451.584 971.647 452.451 971.259 453.54C970.88 454.619 970.691 455.827 970.691 457.162C970.691 458.488 970.88 459.69 971.259 460.77C971.647 461.849 972.23 462.711 973.006 463.355C973.792 463.99 974.777 464.307 975.961 464.307ZM1005.18 468L999.011 446.182H1004.25L1008.09 461.523H1008.29L1012.21 446.182H1017.39L1021.31 461.438H1021.53L1025.3 446.182H1030.56L1024.38 468H1019.03L1014.93 453.256H1014.64L1010.55 468H1005.18ZM1040.43 468.44C1039.05 468.44 1037.8 468.194 1036.69 467.702C1035.59 467.2 1034.72 466.461 1034.08 465.486C1033.44 464.51 1033.13 463.308 1033.13 461.878C1033.13 460.647 1033.35 459.629 1033.81 458.824C1034.26 458.019 1034.88 457.375 1035.67 456.892C1036.46 456.409 1037.34 456.045 1038.33 455.798C1039.32 455.543 1040.35 455.358 1041.41 455.244C1042.69 455.112 1043.72 454.993 1044.52 454.889C1045.31 454.776 1045.89 454.605 1046.25 454.378C1046.62 454.141 1046.81 453.777 1046.81 453.284V453.199C1046.81 452.129 1046.49 451.3 1045.85 450.713C1045.22 450.126 1044.31 449.832 1043.11 449.832C1041.85 449.832 1040.85 450.107 1040.12 450.656C1039.39 451.205 1038.89 451.854 1038.64 452.602L1033.84 451.92C1034.22 450.595 1034.84 449.487 1035.71 448.597C1036.58 447.697 1037.65 447.025 1038.91 446.58C1040.17 446.125 1041.56 445.898 1043.08 445.898C1044.14 445.898 1045.18 446.021 1046.22 446.267C1047.27 446.513 1048.22 446.92 1049.08 447.489C1049.94 448.047 1050.63 448.81 1051.15 449.776C1051.68 450.741 1051.95 451.949 1051.95 453.398V468H1047V465.003H1046.83C1046.52 465.609 1046.08 466.177 1045.51 466.707C1044.95 467.228 1044.25 467.65 1043.4 467.972C1042.55 468.284 1041.56 468.44 1040.43 468.44ZM1041.76 464.662C1042.8 464.662 1043.69 464.458 1044.45 464.051C1045.21 463.634 1045.79 463.085 1046.2 462.403C1046.61 461.722 1046.82 460.978 1046.82 460.173V457.602C1046.66 457.735 1046.38 457.858 1046 457.972C1045.62 458.085 1045.19 458.185 1044.72 458.27C1044.24 458.355 1043.78 458.431 1043.31 458.497C1042.85 458.563 1042.45 458.62 1042.1 458.668C1041.34 458.772 1040.65 458.942 1040.04 459.179C1039.44 459.416 1038.96 459.747 1038.61 460.173C1038.26 460.59 1038.08 461.13 1038.08 461.793C1038.08 462.74 1038.43 463.455 1039.12 463.938C1039.81 464.42 1040.69 464.662 1041.76 464.662ZM1062.26 438.909V468H1057.12V438.909H1062.26ZM1072.69 438.909V468H1067.55V438.909H1072.69ZM1087.64 468.426C1085.45 468.426 1083.56 467.972 1081.97 467.062C1080.39 466.144 1079.17 464.847 1078.32 463.17C1077.47 461.485 1077.04 459.501 1077.04 457.219C1077.04 454.974 1077.47 453.005 1078.32 451.31C1079.18 449.605 1080.38 448.279 1081.93 447.332C1083.47 446.376 1085.28 445.898 1087.37 445.898C1088.71 445.898 1089.98 446.116 1091.17 446.551C1092.38 446.977 1093.44 447.64 1094.36 448.54C1095.28 449.439 1096.01 450.585 1096.54 451.977C1097.07 453.36 1097.34 455.008 1097.34 456.92V458.497H1079.46V455.031H1092.41C1092.4 454.046 1092.19 453.17 1091.77 452.403C1091.35 451.627 1090.77 451.016 1090.02 450.571C1089.28 450.126 1088.42 449.903 1087.44 449.903C1086.39 449.903 1085.46 450.159 1084.67 450.67C1083.87 451.172 1083.25 451.835 1082.81 452.659C1082.37 453.473 1082.15 454.368 1082.14 455.344V458.369C1082.14 459.638 1082.37 460.727 1082.84 461.636C1083.3 462.536 1083.95 463.227 1084.78 463.71C1085.62 464.184 1086.59 464.42 1087.71 464.42C1088.46 464.42 1089.13 464.316 1089.74 464.108C1090.35 463.89 1090.87 463.573 1091.32 463.156C1091.76 462.74 1092.1 462.223 1092.32 461.608L1097.13 462.148C1096.82 463.417 1096.25 464.525 1095.39 465.472C1094.55 466.409 1093.47 467.138 1092.15 467.659C1090.84 468.17 1089.33 468.426 1087.64 468.426ZM1112.58 446.182V450.159H1100.04V446.182H1112.58ZM1103.14 440.955H1108.28V461.438C1108.28 462.129 1108.38 462.659 1108.59 463.028C1108.81 463.388 1109.09 463.634 1109.44 463.767C1109.79 463.9 1110.18 463.966 1110.61 463.966C1110.93 463.966 1111.22 463.942 1111.49 463.895C1111.76 463.848 1111.97 463.805 1112.12 463.767L1112.98 467.787C1112.71 467.882 1112.31 467.986 1111.8 468.099C1111.3 468.213 1110.69 468.279 1109.96 468.298C1108.67 468.336 1107.51 468.142 1106.48 467.716C1105.44 467.28 1104.62 466.608 1104.02 465.699C1103.42 464.79 1103.13 463.653 1103.14 462.29V440.955ZM1120.05 468.312C1119.19 468.312 1118.45 468.009 1117.84 467.403C1117.22 466.797 1116.92 466.059 1116.93 465.188C1116.92 464.335 1117.22 463.606 1117.84 463C1118.45 462.394 1119.19 462.091 1120.05 462.091C1120.89 462.091 1121.61 462.394 1122.23 463C1122.85 463.606 1123.17 464.335 1123.18 465.188C1123.17 465.765 1123.02 466.291 1122.72 466.764C1122.44 467.238 1122.06 467.616 1121.59 467.901C1121.12 468.175 1120.61 468.312 1120.05 468.312Z" fill="#0E76FD"/>
<path d="M676.943 194.089C670.265 181.48 661.126 171.378 649.769 164.056C638.382 156.723 625.306 153 610.905 153C596.509 153 583.686 156.718 572.299 164.056C560.932 171.378 551.829 181.496 545.237 194.121C542.507 199.354 540.325 204.893 538.686 210.699C537.083 204.588 534.885 198.819 532.094 193.436C525.569 180.87 516.486 170.88 505.094 163.734C493.717 156.61 480.579 153 466.036 153C451.498 153 438.102 156.61 426.73 163.74C415.328 170.88 406.245 180.875 399.729 193.441C397.055 198.589 394.934 204.095 393.351 209.918C391.767 204.095 389.646 198.589 386.972 193.436C380.452 180.87 371.368 170.88 359.971 163.734C348.6 156.61 335.459 153 320.919 153C306.378 153 292.984 156.61 281.61 163.74C272.879 169.214 265.508 176.365 259.606 185.053L260.497 182.128C262.894 174.694 262.87 168.271 260.423 163.038C258.515 158.967 254.379 154.114 245.526 154.114C233.349 154.114 228.499 164.95 226.684 171.442L204.988 245.902L187.095 169.589C186.117 165.1 184.056 161.388 180.968 158.549C177.767 155.608 173.715 154.119 168.924 154.119C164.132 154.119 159.787 155.641 156.659 158.635C153.777 161.393 151.726 164.988 150.566 169.305L129.977 245.425L108.35 171.394C106.627 165.518 104.327 161.319 101.317 158.544C98.1162 155.603 94.1521 154.114 89.5273 154.114C85.3328 154.114 77.811 155.319 74.6005 163.402C72.623 168.362 72.4763 174.501 74.1697 181.657L74.2184 181.871L111.947 305.749L111.986 305.872C113.244 309.739 115.554 312.985 118.842 315.514C122.127 318.047 125.792 319.333 129.732 319.333C133.672 319.333 137.592 318.047 140.871 315.519C144.277 312.9 146.538 309.52 147.595 305.47L167.994 226.715L187.428 305.396L187.448 305.476C188.51 309.557 190.844 312.959 194.373 315.578C197.725 318.074 201.406 319.338 205.311 319.338C209.456 319.338 213.196 318.031 216.411 315.455C219.646 312.868 221.819 309.563 222.881 305.636L244.855 233.486C244.821 234.61 244.801 235.735 244.801 236.876C244.801 252.978 248.1 267.499 254.599 280.017C261.118 292.588 270.207 302.584 281.6 309.718C292.964 316.842 306.193 320.458 320.909 320.458C335.626 320.458 348.848 316.847 360.22 309.723C371.622 302.578 380.67 292.578 387.109 279.99C389.728 274.875 391.808 269.427 393.366 263.68C394.944 269.443 397.06 274.902 399.719 280.022C406.24 292.594 415.328 302.589 426.72 309.723C438.081 316.847 451.31 320.463 466.026 320.463C480.747 320.463 493.971 316.853 505.337 309.729C516.739 302.583 525.787 292.583 532.231 279.995C533.246 278.003 534.18 275.957 535.038 273.868V343.367C535.038 349.12 536.91 354.203 540.447 358.081C543.984 361.954 548.637 364 553.884 364C559.136 364 564.053 361.927 567.529 357.996C570.984 354.074 572.74 349.152 572.74 343.367V303.939C576.739 307.426 581.093 310.446 585.761 312.98C594.93 317.951 605.1 320.474 615.984 320.474C629.436 320.474 641.706 316.719 652.449 309.322C663.11 301.978 671.64 291.892 677.78 279.342C683.9 266.845 687 252.565 687 236.892C687 221.219 683.61 206.757 676.917 194.116L676.943 194.089ZM610.91 190.929C618.526 190.929 625.098 192.852 631.004 196.805C636.962 200.806 641.574 206.136 645.091 213.093C648.577 219.993 650.338 227.99 650.338 236.866C650.338 245.741 648.572 253.459 645.091 260.353C641.574 267.316 636.962 272.646 631.004 276.648C625.103 280.601 618.531 282.524 610.91 282.524C603.293 282.524 596.909 280.595 590.922 276.626C584.898 272.641 580.311 267.338 576.886 260.401C573.466 253.503 571.741 245.586 571.741 236.866C571.741 228.145 573.471 219.95 576.886 213.045C580.316 206.12 584.903 200.811 590.922 196.826C596.915 192.857 603.455 190.929 610.91 190.929ZM505.215 236.866C505.215 245.961 503.521 254.027 500.182 260.846C496.848 267.665 492.347 272.866 486.43 276.755C480.605 280.584 473.739 282.524 466.036 282.524C458.333 282.524 451.473 280.584 445.642 276.755C439.71 272.861 435.164 267.643 431.738 260.798C428.333 254.001 426.613 245.95 426.613 236.871C426.613 227.792 428.344 219.677 431.754 212.772C435.179 205.846 439.72 200.592 445.642 196.703C451.473 192.873 458.328 190.934 466.031 190.934C473.734 190.934 480.595 192.873 486.42 196.703C492.326 200.581 496.822 205.825 500.161 212.719C503.505 219.639 505.205 227.765 505.205 236.871L505.215 236.866ZM360.093 236.866C360.093 245.961 358.398 254.027 355.059 260.846C351.72 267.665 347.225 272.866 341.308 276.755C335.478 280.584 328.617 282.524 320.914 282.524C313.211 282.524 306.349 280.584 300.52 276.755C294.589 272.861 290.042 267.643 286.616 260.798C283.21 254.001 281.488 245.95 281.488 236.871C281.488 227.792 283.22 219.677 286.631 212.772C290.057 205.846 294.599 200.592 300.52 196.703C306.349 192.873 313.206 190.934 320.909 190.934C328.612 190.934 335.469 192.873 341.298 196.703C347.204 200.581 351.695 205.825 355.034 212.719C358.383 219.639 360.083 227.765 360.083 236.871L360.093 236.866Z" fill="#0E76FD"/>
</svg>
