<svg width="745" height="254" viewBox="0 0 745 254" fill="none" xmlns="http://www.w3.org/2000/svg">
<path d="M639.353 39.8273C632.286 27.6055 622.608 17.8135 610.588 10.7161C598.532 3.60839 584.688 0 569.446 0C554.203 0 540.629 3.6032 528.573 10.7161C516.542 17.8135 506.906 27.621 499.927 39.8584C497.036 44.9309 494.725 50.2994 492.989 55.9274C491.29 50.0034 488.969 44.4117 486.01 39.1939C479.104 27.0136 469.488 17.3306 457.427 10.4046C445.386 3.49936 431.475 0 416.082 0C400.689 0 386.509 3.49936 374.468 10.4098C362.402 17.3306 352.786 27.0188 345.885 39.199C343.056 44.1885 340.807 49.5258 339.134 55.1694C337.455 49.5258 335.212 44.1885 332.383 39.1939C325.477 27.0136 315.861 17.3306 303.799 10.4046C291.759 3.49936 277.848 0 262.455 0C247.062 0 232.882 3.49936 220.841 10.4098C211.598 15.716 203.795 22.6472 197.547 31.0685L198.49 28.2337C201.029 21.0273 201.003 14.8022 198.412 9.72967C196.392 5.78381 192.014 1.07992 182.641 1.07992C169.751 1.07992 164.616 11.5832 162.694 17.8758L139.727 90.0488L120.785 16.0794C119.749 11.7286 117.568 8.13056 114.298 5.37884C110.91 2.52847 106.62 1.08511 101.548 1.08511C96.4757 1.08511 91.8749 2.55962 88.5643 5.46191C85.5127 8.13575 83.3418 11.6195 82.1139 15.8042L60.3174 89.5867L37.4224 17.8291C35.5987 12.1335 33.1636 8.06306 29.9773 5.37364C26.5889 2.52328 22.3923 1.07992 17.4962 1.07992C13.0561 1.07992 5.09289 2.2481 1.69414 10.0827C-0.398988 14.8904 -0.554419 20.8404 1.23821 27.7768L1.29002 27.9845L41.2305 148.058L41.2719 148.178C42.6035 151.926 45.0489 155.072 48.5305 157.523C52.007 159.979 55.8876 161.225 60.0583 161.225C64.229 161.225 68.379 159.979 71.8503 157.528C75.4563 154.989 77.8499 151.713 78.969 147.788L100.564 71.4513L121.137 147.715L121.158 147.793C122.282 151.75 124.754 155.046 128.489 157.585C132.038 160.005 135.934 161.23 140.069 161.23C144.457 161.23 148.415 159.963 151.819 157.466C155.244 154.958 157.544 151.755 158.669 147.949L181.931 78.0139C181.895 79.1042 181.874 80.1945 181.874 81.3004C181.874 96.9073 185.366 110.983 192.247 123.116C199.148 135.302 208.769 144.99 220.83 151.905C232.861 158.811 246.865 162.315 262.444 162.315C278.024 162.315 292.023 158.816 304.058 151.911C316.13 144.985 325.71 135.291 332.528 123.09C335.3 118.132 337.502 112.852 339.149 107.281C340.823 112.867 343.061 118.158 345.874 123.121C352.775 135.307 362.397 144.995 374.458 151.911C386.488 158.816 400.493 162.32 416.072 162.32C431.651 162.32 445.65 158.821 457.686 151.916C469.758 144.99 479.337 135.296 486.156 123.095C487.233 121.164 488.218 119.181 489.129 117.156V194.521C489.129 200.097 491.109 205.024 494.854 208.783C498.6 212.537 503.522 214.52 509.082 214.52C514.641 214.52 519.843 212.511 523.526 208.7C527.184 204.899 529.039 200.128 529.039 194.521V146.303C533.272 149.683 537.883 152.611 542.826 155.067C552.535 159.885 563.296 162.331 574.818 162.331C589.061 162.331 602.05 158.691 613.422 151.521C624.711 144.403 633.737 134.627 640.239 122.462C646.715 110.349 650 96.5075 650 81.3159C650 66.1244 646.41 52.1062 639.327 39.8532L639.353 39.8273ZM569.451 36.764C577.512 36.764 584.471 38.6279 590.719 42.4596C597.029 46.3379 601.91 51.5039 605.635 58.2482C609.324 64.9354 611.189 72.687 611.189 81.29C611.189 89.893 609.319 97.3746 605.635 104.057C601.91 110.806 597.029 115.972 590.719 119.85C584.476 123.682 577.518 125.546 569.451 125.546C561.384 125.546 554.628 123.677 548.286 119.83C541.914 115.967 537.054 110.827 533.427 104.103C529.811 97.4161 527.982 89.7424 527.982 81.29C527.982 72.8375 529.816 64.8939 533.432 58.2015C537.059 51.4883 541.919 46.3431 548.286 42.4803C554.633 38.6331 561.555 36.764 569.451 36.764ZM457.556 81.29C457.556 90.1059 455.764 97.9249 452.23 104.534C448.697 111.144 443.935 116.185 437.672 119.954C431.501 123.666 424.237 125.546 416.082 125.546C407.927 125.546 400.664 123.666 394.493 119.954C388.214 116.18 383.4 111.123 379.774 104.488C376.168 97.899 374.344 90.0955 374.344 81.2952C374.344 72.4949 376.178 64.6291 379.789 57.9367C383.416 51.2235 388.224 46.1303 394.493 42.3609C400.664 38.6487 407.922 36.7692 416.077 36.7692C424.232 36.7692 431.491 38.6487 437.661 42.3609C443.915 46.1199 448.671 51.2028 452.204 57.8848C455.748 64.5928 457.546 72.4689 457.546 81.2952L457.556 81.29ZM303.924 81.29C303.924 90.1059 302.131 97.9249 298.598 104.534C295.064 111.144 290.303 116.185 284.039 119.954C277.868 123.666 270.604 125.546 262.45 125.546C254.295 125.546 247.031 123.666 240.86 119.954C234.581 116.18 229.768 111.123 226.141 104.488C222.535 97.899 220.711 90.0955 220.711 81.2952C220.711 72.4949 222.545 64.6291 226.157 57.9367C229.783 51.2235 234.591 46.1303 240.86 42.3609C247.031 38.6487 254.289 36.7692 262.444 36.7692C270.599 36.7692 277.858 38.6487 284.029 42.3609C290.282 46.1199 295.038 51.2028 298.572 57.8848C302.115 64.5928 303.913 72.4689 303.913 81.2952L303.924 81.29Z" fill="#007BFF"/>
<rect x="555" y="175" width="190" height="79" rx="39.5" fill="#007BFF"/>
<path d="M610.169 234.55C608.757 234.55 607.538 234.367 606.511 234C605.484 233.633 604.614 233.147 603.899 232.542C603.184 231.919 602.597 231.232 602.139 230.48C601.68 229.728 601.323 228.958 601.066 228.17L600.159 234H594.329V193.135H602.386V209.415C602.734 208.81 603.184 208.242 603.734 207.71C604.284 207.178 604.925 206.711 605.659 206.307C606.392 205.904 607.199 205.592 608.079 205.372C608.977 205.134 609.93 205.015 610.939 205.015C614.477 205.015 617.245 206.289 619.244 208.837C621.26 211.386 622.269 214.979 622.269 219.617C622.269 222.624 621.81 225.246 620.894 227.482C619.977 229.719 618.62 231.461 616.824 232.707C615.027 233.936 612.809 234.55 610.169 234.55ZM608.409 228.775C610.132 228.775 611.562 228.069 612.699 226.657C613.854 225.227 614.431 222.844 614.431 219.507C614.431 216.556 613.881 214.374 612.781 212.962C611.699 211.551 610.224 210.845 608.354 210.845C607.015 210.845 605.906 211.166 605.026 211.807C604.146 212.431 603.486 213.384 603.046 214.667C602.624 215.951 602.404 217.564 602.386 219.507C602.386 222.862 602.881 225.246 603.871 226.657C604.879 228.069 606.392 228.775 608.409 228.775ZM640.853 234.55C638.03 234.55 635.546 233.963 633.401 232.79C631.274 231.598 629.615 229.921 628.423 227.757C627.231 225.594 626.636 223.046 626.636 220.113C626.636 217.271 627.176 214.713 628.258 212.44C629.358 210.148 630.935 208.342 632.988 207.022C635.041 205.684 637.526 205.015 640.441 205.015C643.337 205.015 645.766 205.629 647.728 206.857C649.69 208.067 651.175 209.763 652.183 211.945C653.191 214.108 653.696 216.611 653.696 219.452V221.625H634.583C634.583 223.073 634.821 224.338 635.298 225.42C635.775 226.483 636.462 227.308 637.361 227.895C638.277 228.463 639.377 228.747 640.661 228.747C642.036 228.747 643.236 228.454 644.263 227.867C645.29 227.281 646.014 226.318 646.436 224.98H653.668C653.338 226.997 652.531 228.72 651.248 230.15C649.965 231.58 648.406 232.671 646.573 233.422C644.74 234.174 642.833 234.55 640.853 234.55ZM634.583 216.84H646.188C646.188 215.703 645.968 214.658 645.528 213.705C645.106 212.752 644.465 212 643.603 211.45C642.76 210.9 641.696 210.625 640.413 210.625C639.185 210.625 638.131 210.927 637.251 211.532C636.389 212.119 635.72 212.889 635.243 213.842C634.785 214.796 634.565 215.795 634.583 216.84ZM670.832 234.303C668.32 234.303 666.377 233.982 665.002 233.34C663.645 232.698 662.701 231.8 662.169 230.645C661.656 229.49 661.399 228.152 661.399 226.63V211.147H656.779V205.565H661.647L663.682 196.985H669.402V205.537H675.727V211.147H669.402L669.457 226.3C669.457 226.997 669.539 227.519 669.704 227.867C669.888 228.197 670.163 228.417 670.529 228.527C670.914 228.619 671.4 228.665 671.987 228.665H675.809V233.615C675.424 233.78 674.847 233.936 674.077 234.083C673.307 234.229 672.225 234.303 670.832 234.303ZM689.837 234.55C688.04 234.55 686.408 234.211 684.942 233.532C683.493 232.854 682.347 231.873 681.504 230.59C680.661 229.288 680.239 227.712 680.239 225.86C680.239 222.743 681.403 220.378 683.732 218.765C686.06 217.133 689.736 216.29 694.759 216.235L698.334 216.18V214.475C698.334 213.173 697.949 212.174 697.179 211.477C696.427 210.762 695.245 210.414 693.632 210.432C692.477 210.451 691.367 210.726 690.304 211.257C689.259 211.789 688.535 212.715 688.132 214.035H681.449C681.559 211.982 682.155 210.295 683.237 208.975C684.337 207.637 685.812 206.647 687.664 206.005C689.516 205.345 691.633 205.015 694.017 205.015C696.913 205.015 699.242 205.382 701.002 206.115C702.762 206.83 704.036 207.866 704.824 209.222C705.631 210.561 706.034 212.156 706.034 214.007V234H699.324L698.664 229.105C697.692 231.158 696.473 232.579 695.007 233.367C693.558 234.156 691.835 234.55 689.837 234.55ZM692.559 229.27C693.274 229.27 693.971 229.142 694.649 228.885C695.346 228.61 695.969 228.252 696.519 227.812C697.069 227.354 697.5 226.841 697.812 226.272C698.142 225.704 698.316 225.117 698.334 224.512V220.305L695.447 220.36C694.108 220.378 692.862 220.543 691.707 220.855C690.552 221.148 689.617 221.634 688.902 222.312C688.205 222.991 687.857 223.907 687.857 225.062C687.857 226.382 688.306 227.418 689.204 228.17C690.121 228.903 691.239 229.27 692.559 229.27Z" fill="white"/>
</svg>
