<svg width="64" height="64" viewBox="0 0 64 64" fill="none" xmlns="http://www.w3.org/2000/svg">
<g clip-path="url(#clip0_8_9)">
<rect width="64" height="64" fill="#007BFF"/>
<path d="M57.1482 28.3861C56.5829 27.4084 55.8086 26.625 54.847 26.0572C53.8825 25.4886 52.775 25.2 51.5556 25.2C50.3362 25.2 49.2503 25.4882 48.2858 26.0572C47.3234 26.625 46.5524 27.4096 45.9941 28.3886C45.7629 28.7944 45.578 29.2239 45.4391 29.6741C45.3032 29.2002 45.1175 28.7529 44.8808 28.3355C44.3283 27.361 43.5591 26.5864 42.5941 26.0323C41.6309 25.4799 40.518 25.2 39.2866 25.2C38.0552 25.2 36.9207 25.4799 35.9575 26.0327C34.9921 26.5864 34.2229 27.3615 33.6708 28.3359C33.4445 28.735 33.2646 29.162 33.1307 29.6135C32.9964 29.162 32.8169 28.735 32.5906 28.3355C32.0381 27.361 31.2689 26.5864 30.3039 26.0323C29.3407 25.4799 28.2278 25.2 26.9964 25.2C25.765 25.2 24.6305 25.4799 23.6673 26.0327C22.9278 26.4572 22.3036 27.0117 21.8038 27.6854L21.8792 27.4586C22.0823 26.8821 22.0802 26.3841 21.873 25.9783C21.7113 25.6627 21.3611 25.2863 20.6113 25.2863C19.5801 25.2863 19.1693 26.1266 19.0155 26.63L17.1781 32.4039L15.6628 26.4863C15.5799 26.1382 15.4054 25.8504 15.1439 25.6303C14.8728 25.4022 14.5296 25.2868 14.1238 25.2868C13.7181 25.2868 13.35 25.4047 13.0851 25.6369C12.841 25.8508 12.6673 26.1295 12.5691 26.4643L10.8254 32.3669L8.9938 26.6263C8.8479 26.1706 8.65309 25.845 8.39819 25.6298C8.12711 25.4018 7.79138 25.2863 7.3997 25.2863C7.04449 25.2863 6.40743 25.3798 6.13553 26.0066C5.96808 26.3912 5.95565 26.8672 6.09906 27.4221L6.1032 27.4387L9.29844 37.0446L9.30175 37.0542C9.40828 37.354 9.60391 37.6057 9.88244 37.8018C10.1606 37.9983 10.471 38.0979 10.8047 38.0979C11.1383 38.0979 11.4703 37.9983 11.748 37.8022C12.0365 37.5991 12.228 37.337 12.3175 37.023L14.0451 30.9161L15.691 37.0172L15.6926 37.0234C15.7826 37.3399 15.9803 37.6037 16.2791 37.8068C16.5631 38.0003 16.8747 38.0984 17.2055 38.0984C17.5566 38.0984 17.8732 37.997 18.1455 37.7972C18.4195 37.5966 18.6035 37.3403 18.6935 37.0359L20.5545 31.4411C20.5516 31.5283 20.55 31.6155 20.55 31.704C20.55 32.9525 20.8293 34.0786 21.3797 35.0492C21.9318 36.0241 22.7015 36.7991 23.6664 37.3524C24.6289 37.9048 25.7492 38.1852 26.9956 38.1852C28.2419 38.1852 29.3618 37.9052 30.3247 37.3528C31.2904 36.7987 32.0568 36.0232 32.6022 35.0472C32.824 34.6505 33.0001 34.2281 33.1319 33.7824C33.2658 34.2293 33.4449 34.6526 33.6699 35.0497C34.222 36.0245 34.9917 36.7995 35.9566 37.3528C36.9191 37.9052 38.0394 38.1856 39.2858 38.1856C40.5321 38.1856 41.652 37.9056 42.6149 37.3532C43.5806 36.7991 44.347 36.0237 44.8924 35.0476C44.9787 34.8931 45.0574 34.7344 45.1304 34.5724V40.7616C45.1304 41.2077 45.2887 41.6019 45.5884 41.9026C45.888 42.2029 46.2818 42.3616 46.7265 42.3616C47.1713 42.3616 47.5874 42.2008 47.8821 41.8959C48.1747 41.5919 48.3231 41.2102 48.3231 40.7616V36.9042C48.6617 37.1746 49.0306 37.4089 49.426 37.6053C50.2028 37.9908 51.0637 38.1864 51.9855 38.1864C53.1249 38.1864 54.164 37.8952 55.0738 37.3216C55.9769 36.7522 56.6989 35.9701 57.2191 34.9969C57.7372 34.0279 58 32.9206 58 31.7052C58 30.4899 57.7128 29.3684 57.1462 28.3882L57.1482 28.3861ZM51.5561 28.1411C52.201 28.1411 52.7576 28.2902 53.2575 28.5967C53.7623 28.907 54.1528 29.3203 54.4508 29.8598C54.7459 30.3948 54.8951 31.0149 54.8951 31.7031C54.8951 32.3914 54.7455 32.9899 54.4508 33.5245C54.1528 34.0644 53.7623 34.4777 53.2575 34.788C52.7581 35.0945 52.2014 35.2436 51.5561 35.2436C50.9107 35.2436 50.3702 35.0941 49.8629 34.7863C49.3531 34.4773 48.9643 34.0661 48.6742 33.5282C48.3849 32.9932 48.2386 32.3793 48.2386 31.7031C48.2386 31.027 48.3853 30.3915 48.6746 29.8561C48.9647 29.319 49.3535 28.9074 49.8629 28.5984C50.3706 28.2906 50.9244 28.1411 51.5561 28.1411ZM42.6045 31.7031C42.6045 32.4084 42.4611 33.0339 42.1784 33.5627C41.8957 34.0914 41.5148 34.4947 41.0137 34.7963C40.5201 35.0933 39.939 35.2436 39.2866 35.2436C38.6342 35.2436 38.0531 35.0933 37.5594 34.7963C37.0571 34.4943 36.672 34.0898 36.3819 33.559C36.0934 33.0319 35.9475 32.4076 35.9475 31.7036C35.9475 30.9995 36.0942 30.3703 36.3831 29.8349C36.6733 29.2978 37.0579 28.8904 37.5594 28.5888C38.0531 28.2918 38.6338 28.1415 39.2862 28.1415C39.9386 28.1415 40.5192 28.2918 41.0129 28.5888C41.5132 28.8895 41.8937 29.2962 42.1763 29.8307C42.4598 30.3674 42.6037 30.9975 42.6037 31.7036L42.6045 31.7031ZM30.3139 31.7031C30.3139 32.4084 30.1705 33.0339 29.8878 33.5627C29.6051 34.0914 29.2242 34.4947 28.7231 34.7963C28.2295 35.0933 27.6484 35.2436 26.996 35.2436C26.3436 35.2436 25.7625 35.0933 25.2688 34.7963C24.7665 34.4943 24.3814 34.0898 24.0913 33.559C23.8028 33.0319 23.6569 32.4076 23.6569 31.7036C23.6569 30.9995 23.8036 30.3703 24.0925 29.8349C24.3827 29.2978 24.7673 28.8904 25.2688 28.5888C25.7625 28.2918 26.3432 28.1415 26.9956 28.1415C27.6479 28.1415 28.2286 28.2918 28.7223 28.5888C29.2226 28.8895 29.6031 29.2962 29.8857 29.8307C30.1692 30.3674 30.3131 30.9975 30.3131 31.7036L30.3139 31.7031Z" fill="white"/>
</g>
<defs>
<clipPath id="clip0_8_9">
<rect width="64" height="64" fill="white"/>
</clipPath>
</defs>
</svg>
